<svg width="207" height="104" viewBox="0 0 207 104" fill="none" xmlns="http://www.w3.org/2000/svg">
<path d="M14.8774 3H54.3774C58.8774 3 61.3774 4.5 63.8774 8.5L103.378 71C104.303 72.4329 104.976 72.8246 106.378 73H161.878C168.315 73.0016 171.29 83.5361 171.29 88.0361C171.29 92.5361 167.996 102.497 161.878 102.5C161.878 102.5 87.6223 102.536 85 102.536C82.3777 102.536 78.2755 95.828 74.5 90.5361L41 38.0361C41 38.0361 33.8772 38 14.8774 38C-4.12229 38 -3.12258 2.99998 14.8774 3Z" fill="#0B4D3C"/>
<path d="M14.8774 3C32.8774 3.00002 49.8774 3 54.3774 3M14.8774 3C-3.12258 2.99998 -4.12229 38 14.8774 38C33.8772 38 41 38.0361 41 38.0361L74.5 90.5361C78.2755 95.828 82.3777 102.536 85 102.536C87.6223 102.536 161.878 102.5 161.878 102.5C167.996 102.497 171.29 92.5361 171.29 88.0361C171.29 83.5361 168.315 73.0016 161.878 73H106.378C104.976 72.8246 104.303 72.4329 103.378 71L63.8774 8.5C61.3774 4.5 58.8774 3 54.3774 3M14.8774 3H54.3774" stroke="#0B4D3C" stroke-opacity="0.8"/>
<path d="M94.3776 24.4644C85.5446 10.2152 113.075 -9.30142 124.255 7.46438C124.255 7.46438 141.49 36.8153 145.378 43.4641C149.266 50.1129 150.755 53.9282 148.878 57.4641C147 61 145 60.5 143 60.5L116.378 60.4641L94.3776 24.4644Z" fill="#0B4D3C" stroke="#0B4D3C" stroke-opacity="0.8"/>
<path d="M177.378 5.46344C186.509 -0.96057 197.378 -0.0372286 201.878 5.46344C206.378 10.9641 208.618 20.6316 201.878 29.9634L177.378 68.9634L152.378 29.9634C146.115 19.9555 147.878 10.4629 152.378 5.46344C156.878 0.463998 166.903 -1.96624 177.378 5.46344Z" fill="#BFB69B" stroke="#BFB69B"/>
</svg>
